<?xml version="1.0" encoding="UTF-8"?>
<svg id="Layer_1" data-name="Layer 1" xmlns="http://www.w3.org/2000/svg" viewBox="0 0 50 46">
  <defs>
    <style>
      .cls-1 {
        fill: #b42527;
      }
    </style>
  </defs>
  <path class="cls-1" d="M21.00003,22.1184H5.01462c-1.65441,0-2.99655-1.33934-2.99999-3.09099l-.01463-8.02742h6l.00003,4.1184c0,.55228.44772,1,1,1h8c.55228,0,1-.44772,1-1l-.00003-7.1184h-2V2l8.00003.02122v16.99995c0,1.75409-1.34315,3.09724-3,3.09724ZM48,19.02122V2h-6v13.02122c0,.55228-.44772,1-1,1h-1v-7.98939h-6v7c0,.55228-.44772,1-1,1h-1V2.02122h-6v20h19c1.65685,0,3-1.34315,3-3ZM18,36.02122v2h-10v-8h2v-5.98848l-8-.01152v20h22l-.00007-8h-5.99993ZM47.99992,33.02122l.00008-5.99995c.00003-1.65687-1.34313-3.00005-3-3.00005h-15.99995c-1.65685,0-3,1.34315-3,3l-.00005,14c0,1.65685,1.34315,3,3,3h15.99996c1.65687,0,3.00002-1.34317,3-4.00004l-.00005-4.99996-5.99991-.00005v2.00005c0,.55228-.44772,1-1,1h-8c-.55228,0-1-.44772-1-1l.00005-6c0-.55228.44772-1,1-1h8c.55228,0,1,.44772,1,1v2h5.99988Z"/>
</svg>
