<?xml version="1.0" encoding="UTF-8"?><svg id="a" xmlns="http://www.w3.org/2000/svg" width="12in" height="6in" viewBox="0 0 864 432"><path d="M619.16,276.12c-.36,2.79-.63,5.67-.99,8.46-.82,5.58-1.72,11.17-2.81,16.75h6.88c-1.27-8.37-2.35-16.75-3.08-25.21Z" fill="#ffe0a8"/><polygon points="166.66 276.12 162.86 301.33 169.74 301.33 166.66 276.12" fill="#ffe0a8"/><path d="M0,0v432.32h864V0H0ZM27.65,29.96h808.69v21.06H27.65v-21.06ZM713.56,261.71h17.01l5.7,18.55,5.7-18.55h16.83l-13.93,34.67v25.39h-16.29v-25.39l-15.02-34.67ZM754.42,221.51v-47.23h-21.4v47.23h-21.24v-106.78h21.24v39.54h21.4v-39.54h21.24v106.78h-21.24ZM672.47,321.77h-15.56v-60.06h15.56l13.12,36.2-1.81-36.2h15.56v60.06h-15.56l-12.31-34.58,1,34.58ZM440.69,221.51l-14.16-63.56-15.61,63.56h-18.5l-21.72-106.78h21.72l11.42,63.56,14-63.56h16.73l14,64.12,10.62-64.12h22.2l-22.2,106.78h-18.5ZM449.47,291.16c0,14.05-5.7,31.7-22.62,31.7-6.42,0-12.4-3.15-16.47-8.01-5.25-6.3-6.79-15.76-6.79-23.68,0-14.14,6.61-30.53,23.17-30.53s22.71,16.57,22.71,30.53ZM380.33,307.19c3.53,0,5.97-1.62,8.51-3.87l-1,17.38c-3.53,1.53-5.79,2.16-9.68,2.16-17.37,0-24.79-15.58-24.79-30.89,0-16.48,8.51-31.34,26.69-31.34,3.26,0,5.07.27,8.05,1.53v17.11c-2.17-2.25-4.25-3.6-7.51-3.6-8.6,0-10.59,9.18-10.59,16.03s1.99,15.49,10.32,15.49ZM471.92,261.71h20.27l4.71,27.44,5.61-27.44h20.09l5.88,60.06h-17.01l-1.63-36.38-6.7,36.38h-13.3l-5.79-36.38-1.72,36.38h-17.46l7.06-60.06ZM517.27,172.36v49.15h-21.24v-106.78h23.01c7.88,0,16.57.64,23.33,5.12,8.53,5.6,12.71,16.01,12.71,25.93,0,12.17-4.83,20.81-15.28,27.22l18.66,48.51h-22.36l-18.82-49.15ZM545.68,261.71h15.75c4.52,0,9.23.45,13.39,2.25,7.33,3.24,10.86,10.44,10.86,18.19,0,14.59-9.86,21.16-23.71,19.9v19.72h-16.29v-60.06ZM577.93,221.51v-106.78h21.24v106.78h-21.24ZM609.57,261.71h19.91l12.76,60.06h-16.83l-1.27-7.65h-10.95l-1.36,7.65h-16.83l14.57-60.06ZM619.28,168.52c0-24.49,8.04-55.39,38.13-55.39,16.41,0,27.03,10.25,31.53,25.29l-20.59,8c-.96-6.24-2.73-14.73-10.78-14.73-14.48,0-15.6,26.41-15.6,36.5s.48,35.86,15.77,35.86c11.58,0,12.87-14.41,13.03-23.05h-13.51v-18.89h34.43c.16,2.72.16,5.44.16,8.16,0,7.52-.32,15.21-1.93,22.57-3.54,16.49-14.32,30.42-32.5,30.42-28.96,0-38.13-31.06-38.13-54.75ZM272.4,221.51v-106.78h42.63v19.85h-21.4v23.05h18.82v20.17h-18.82v24.01h21.72v19.69h-42.96ZM306.94,291.79c0,6.39-.99,12.88-4.16,18.46-4.98,8.91-12.49,11.53-22.26,11.53h-15.2v-60.06h14.03c18.46,0,27.6,12.7,27.6,30.08ZM219.97,321.77h-15.56v-60.06h15.56l13.12,36.2-1.81-36.2h15.56v60.06h-15.56c-4.25-11.44-12.31-34.58-12.31-34.58l1,34.58ZM129.29,307.37v14.41h-28.5v-60.06h16.29v45.65h12.22ZM115.37,223.27c-17.54,0-31.53-8.49-31.53-27.38v-81.17h21.24v70.92c0,8-.32,18.41,10.62,18.41s10.46-9.45,10.46-17.45v-71.88h21.24v79.57c0,6.08-.32,10.89-3.54,16.33-5.79,9.77-17.86,12.65-28.48,12.65ZM157.07,261.71h19.91l12.76,60.06h-16.83l-1.27-7.65h-10.95l-1.36,7.65h-16.83l14.57-60.06ZM169.92,221.51v-106.78h21.24v86.77h22.2v20.01h-43.44ZM228.64,221.51v-106.78h21.24v106.78h-21.24ZM19.81,198.77c2.89,3.52,6.43,5.92,11.26,5.92,9.17,0,9.01-9.28,9.01-16.01v-73.96h21.24v75.08c0,5.76-.32,11.85-2.25,17.45-3.54,10.25-12.87,16.01-23.49,16.01-5.47,0-10.94-.8-15.77-3.36v-21.13ZM836.35,404.8H27.65v-21.06h808.69v21.06ZM844.19,134.26h-16.57v87.25h-21.24v-87.25h-16.57v-19.53h54.38v19.53Z" fill="#ffe0a8"/><path d="M569.21,281.88c0-3.69-2.17-7.02-6.15-7.02h-1.09v13.78h.82c3.98,0,6.42-2.88,6.42-6.75Z" fill="#ffe0a8"/><path d="M420.52,291.7c0,3.87.36,15.94,5.97,15.94s6.06-11.98,6.06-15.85-.27-16.03-5.88-16.03-6.15,12.07-6.15,15.94Z" fill="#ffe0a8"/><path d="M290.29,292.24c0-5.58-1.18-15.49-8.69-15.49v30.53c7.6-.27,8.69-9.18,8.69-15.04Z" fill="#ffe0a8"/><path d="M521.29,131.37h-4.02v29.3c1.12.16,2.41.16,3.54.16,9.17,0,13.67-6.24,13.67-14.89s-3.86-14.57-13.19-14.57Z" fill="#ffe0a8"/></svg>