<?xml version="1.0" encoding="UTF-8"?>
<svg id="Layer_1" data-name="Layer 1" xmlns="http://www.w3.org/2000/svg" viewBox="0 0 100 24">
  <defs>
    <style>
      .cls-1 {
        fill: #010101;
      }
    </style>
  </defs>
  <path class="cls-1" d="M21,22.09719H5.01459c-1.65441,0-2.99655-1.33934-2.99999-3.09099l-.0146-8.0062h6v4.09719c0,.55228.44772,1,1,1h8c.55228,0,1-.44772,1-1v-7.09719h-2V2h8v16.99995c0,1.75409-1.34315,3.09724-3,3.09724ZM49,19V1.97878h-6v13.02122c0,.55228-.44772,1-1,1h-1v-7.98939h-6v7c0,.55228-.44772,1-1,1h-1V2h-6v20h19c1.65685,0,3-1.34315,3-3ZM68,14v2h-10v-8h2V2.01152l-8-.01152v20h22l-.00007-8h-5.99993ZM97.99992,11l.00008-5.99995c.00003-1.65687-1.34313-3.00005-3-3.00005h-15.99995c-1.65685,0-3,1.34315-3,3l-.00005,14c0,1.65685,1.34315,3,3,3h15.99996c1.65687,0,3.00002-1.34317,3-4.00004l-.00005-4.99996-5.99991-.00005v2.00005c0,.55228-.44772,1-1,1h-8c-.55228,0-1-.44772-1-1l.00005-6c0-.55228.44772-1,1-1h8c.55228,0,1,.44772,1,1v2h5.99988Z"/>
</svg>