<?xml version="1.0" encoding="UTF-8"?><svg id="b" xmlns="http://www.w3.org/2000/svg" width="43.24" height="38.47" viewBox="0 0 43.24 38.47"><g id="c"><path d="M40.6,17.91h-17.79V.02h5.27v12.64h1.17c.64,0,1.16-.52,1.16-1.16v-6.24h5.27v7.39h1.14c.64,0,1.16-.52,1.16-1.16V0h5.27v15.27c0,1.46-1.18,2.64-2.64,2.64ZM12.54,5.27h2.68v6.24c0,.64-.52,1.16-1.16,1.16h-7.62c-.64,0-1.16-.52-1.16-1.16v-3.54H.01l.02,7.33c0,1.45,1.18,2.63,2.64,2.63h15.17c1.46,0,2.64-1.18,2.64-2.64V0h-7.94v5.27ZM43.24,28.47v-2.68h0v-2.11c0-1.74-1.41-3.15-3.15-3.15h-14.66c-1.46,0-2.64,1.18-2.64,2.64v12.65c0,1.46,1.18,2.64,2.64,2.64h14.66c1.74,0,3.15-1.41,3.15-3.15v-2.12s0,0,0,0v-2.68h-5.27v1.52c0,.64-.52,1.16-1.16,1.16h-7.59c-.64,0-1.16-.52-1.16-1.16v-5.08c0-.64.52-1.16,1.16-1.16h7.59c.64,0,1.16.52,1.16,1.16v1.51h5.27ZM15.18,30.53v2.68H5.27v-7.69h2.68v-5.27H0v18.22h20.48v-7.94h-5.3Z" fill="#bd3528"/></g></svg>