<?xml version="1.0" encoding="UTF-8"?><svg id="b" xmlns="http://www.w3.org/2000/svg" width="43.24" height="38.47" viewBox="0 0 43.24 38.47"><g id="c"><path d="M43.24,15.27V0h-5.27v11.5c0,.64-.52,1.16-1.16,1.16h-1.14v-7.39h-5.27v6.24c0,.64-.52,1.16-1.16,1.16h-1.17V.02h-5.27v17.89s17.78,0,17.78,0c1.46,0,2.64-1.18,2.64-2.64Z" fill="#bd3528"/><path d="M12.54,5.27h2.68v6.24c0,.64-.52,1.16-1.16,1.16h-7.62c-.64,0-1.16-.52-1.16-1.16v-3.54H.01l.02,7.33c0,1.45,1.18,2.63,2.64,2.63h15.17c1.46,0,2.64-1.18,2.64-2.64V0h-7.94v5.27Z" fill="#bd3528"/><path d="M43.24,28.47v-2.68h0v-2.11c0-1.74-1.41-3.15-3.15-3.15h-14.66c-1.46,0-2.64,1.18-2.64,2.64v12.65c0,1.46,1.18,2.64,2.64,2.64h14.66c1.74,0,3.15-1.41,3.15-3.15v-2.12s0,0,0,0v-2.68h-5.27v1.52c0,.64-.52,1.16-1.16,1.16h-7.59c-.64,0-1.16-.52-1.16-1.16v-5.08c0-.64.52-1.16,1.16-1.16h7.59c.64,0,1.16.52,1.16,1.16v1.51h5.27Z" fill="#bd3528"/><polygon points="15.18 30.53 15.18 33.2 5.27 33.2 5.27 25.51 7.94 25.51 7.94 20.24 0 20.24 0 38.47 20.48 38.47 20.48 30.53 15.18 30.53" fill="#bd3528"/></g></svg>