<?xml version="1.0" encoding="UTF-8"?><svg id="b" xmlns="http://www.w3.org/2000/svg" width="265.2" height="133.35" viewBox="0 0 265.2 133.35"><g id="c"><rect width="265.2" height="133.35" fill="#fcca82"/><path id="d" d="M132.61,127.73c-41.77,0-83.55,0-125.32,0-2.36,0-2.14.23-2.14-2.1,0-16.02,0-32.04,0-48.06,0-.25,0-.51,0-.76.01-1.36.73-1.87,2.01-1.39.19.07.39.33.42.53.07.45.04.91.04,1.37,0,15.26,0,30.52,0,45.78,0,2.33-.03,2.13,2.18,2.13,81.77,0,163.54,0,245.31,0,2.74,0,2.48.24,2.49-2.42,0-15.16,0-30.32,0-45.48,0-.25,0-.51,0-.76.03-1.17.11-1.24,1.35-1.22,1.03.02,1.08.07,1.12,1.14,0,.25,0,.51,0,.76,0,16.17,0,32.35,0,48.52,0,2.11.17,1.96-1.98,1.96-41.82,0-83.65,0-125.47,0ZM136.72,58.51c.47,2.28.93,4.56,1.4,6.85.12.57.24,1.09,1.01,1.08,1.82-.02,3.64.01,5.46,0,.98-.01,1.35-.32,1.64-1.26.09-.29.14-.59.2-.89,1.27-6.36,2.55-12.71,3.81-19.07.69-3.48,1.37-6.96,2.02-10.44.19-1,.12-1.06-.87-1.07-1.83-.02-3.65-.01-5.48.01-1.41.02-1.7.26-1.88,1.62-.53,4.02-1.03,8.04-1.55,12.05-.14,1.06-.3,2.12-.45,3.18-.34-.23-.44-.44-.48-.67-.51-2.64-1.01-5.27-1.5-7.91-.43-2.29-.82-4.59-1.27-6.87-.21-1.09-.51-1.4-1.46-1.42-1.78-.03-3.55,0-5.33,0-.78,0-1.23.39-1.37,1.15-.05.25-.11.49-.16.74-.87,4.68-1.74,9.36-2.61,14.04-.06.31-.21.59-.32.89-.66-3.4-1.09-6.75-1.51-10.11-.22-1.76-.41-3.52-.65-5.28-.14-.98-.55-1.4-1.48-1.42-2.08-.04-4.16,0-6.24,0-.63,0-.79.33-.66.89.05.2.11.39.14.59,1.69,8.55,3.38,17.09,5.07,25.64.28,1.39.54,2.79.86,4.17.27,1.16.69,1.46,1.79,1.46,1.57,0,3.14,0,4.7,0,1.02,0,1.4-.28,1.67-1.19.09-.29.16-.59.22-.89.94-4.62,1.88-9.23,2.83-13.85.08-.37.23-.72.47-1.44.7,3.39,1.33,6.41,1.96,9.43ZM7.3,5.62c-.3,0-.61,0-.91,0-1.2.03-1.24.04-1.24,1.17-.01,7.45-.01,14.9,0,22.36,0,1.06.08,1.1,1.13,1.12,1.22.02,1.3-.05,1.33-1.24,0-.3,0-.61,0-.91,0-5.93,0-11.86,0-17.79,0-2.45-.04-2.2,2.26-2.2,81.76,0,163.53,0,245.29,0,2.71,0,2.42-.2,2.42,2.48,0,6.13,0,12.27,0,18.4,0,1.22.09,1.28,1.3,1.26,1.06-.01,1.12-.06,1.16-1.09.01-.3,0-.61,0-.91,0-6.84,0-13.69,0-20.53,0-2.32.23-2.11-2.14-2.11-41.77,0-83.54,0-125.31,0-41.77,0-83.54,0-125.31,0ZM162.84,52.18c.17.4.35.8.49,1.2.67,1.91,1.32,3.83,2.01,5.73.77,2.12,1.89,4.04,3.57,5.58,1.83,1.67,3.96,2.41,6.44,1.81,1.01-.24,1.41-.63,1.45-1.66.05-1.62.05-3.24,0-4.86-.03-.96-.28-1.21-1.27-1.36-1.66-.25-2.75-1.2-3.48-2.64-.25-.5-.43-1.03-.66-1.53-.34-.74-.19-1.3.41-1.89,1.27-1.23,2.02-2.77,2.4-4.49.52-2.36.51-4.74.11-7.09-.69-4.08-3.24-6.38-7.24-7.17-3.92-.78-7.77-.13-11.62.51-.69.11-1.04.59-1.09,1.27-.03.4-.03.81-.03,1.21,0,9.01,0,18.03.02,27.04,0,.46-.01.91.01,1.37.05,1,.07,1.04,1.06,1.05,1.98.03,3.95.02,5.93,0,1.23-.01,1.25-.03,1.25-1.31.01-3.7,0-7.39,0-11.09,0-.55,0-1.09,0-1.64.08-.02.17-.03.25-.05ZM162.6,41.63c0-.55.29-.82.81-.92,1.15-.22,2.16.3,2.51,1.43.45,1.48.55,2.99.1,4.49-.42,1.44-1.14,1.84-2.62,1.64-.56-.08-.81-.31-.81-.87,0-.96,0-1.92,0-2.88,0,0,0,0,0,0,0-.96,0-1.92,0-2.88ZM235.12,35.04c0-1.28-.02-1.3-1.25-1.31-1.93-.02-3.86-.02-5.78,0-1.17.01-1.19.03-1.2,1.2-.01,3.04,0,6.08,0,9.12,0,2.26.2,2.04-2.03,2.05-1.56,0-1.57-.01-1.57-1.64,0-2.84,0-5.68,0-8.51,0-.51-.03-1.01-.04-1.52-.01-.5-.26-.74-.76-.74-2.08,0-4.16-.02-6.24,0-.71,0-1.12.44-1.2,1.13-.04.35-.03.71-.03,1.06,0,9.53,0,19.06.01,28.58,0,.35.01.71.02,1.06,0,.5.28.73.77.73,2.23,0,4.46,0,6.7,0,.49,0,.76-.22.77-.73,0-.41.01-.81.02-1.22,0-3.19,0-6.39,0-9.58,0-.54-.1-1.31.59-1.39.93-.11,1.89.02,2.83.13.1.01.2.53.21.82.03,1.01.01,2.03.01,3.04,0,2.64.01,5.27,0,7.91,0,.68.21,1.03.95,1.02,2.13-.03,4.26-.01,6.39-.01.55,0,.86-.22.86-.8,0-.41,0-.81,0-1.22,0-4.76,0-9.53,0-14.29,0-4.97,0-9.93,0-14.9ZM211.92,55.51c0-2.38-.01-4.76,0-7.15,0-.7-.25-1.01-.98-1-2.69.02-5.38.02-8.07,0-.71,0-1,.27-.99.98.03,1.57,0,3.14.01,4.71.01,1.13.02,1.18,1.15,1.24.7.04,1.02.28,1,.99-.03,1.11.02,2.23-.02,3.35-.03.93-.28,1.16-1.2,1.16-1.43,0-2.45-.73-2.95-2.01-.38-.98-.59-2.04-.75-3.08-.49-3.23-.37-6.47.02-9.7.14-1.14.5-2.27.87-3.37.23-.7.75-1.25,1.58-1.19.84.06,1.39.57,1.65,1.37.09.29.14.59.19.89.09.55.19,1.1.22,1.66.03.64.33.88.96.88,2.03-.02,4.06-.02,6.09,0,.76,0,.93-.36.91-1.04-.06-1.84-.28-3.64-.95-5.36-.88-2.27-2.32-4.07-4.66-4.93-3.22-1.19-6.4-.94-9.41.67-3.16,1.68-4.57,4.64-5.34,7.95-.87,3.78-1.04,7.63-.57,11.47.23,1.85.62,3.7,1.2,5.47,1.14,3.5,3.5,5.84,7.07,6.97,4.19,1.33,7.99.56,11.56-1.89.97-.67,1.45-1.46,1.42-2.65-.05-2.13-.01-4.26-.01-6.39h-.01ZM44.73,44.79c0,3.09.04,6.18-.02,9.27-.02,1.16-.18,2.32-.42,3.46-.3,1.43-1.2,2.3-2.1,2.28-.97-.02-1.79-.83-2.05-2.3-.27-1.49-.48-3.01-.5-4.52-.06-5.78-.02-11.55-.02-17.33,0-.41,0-.81-.01-1.22,0-.5-.26-.74-.76-.74-2.08,0-4.16-.02-6.24,0-.72,0-1.12.44-1.2,1.13-.05.4-.03.81-.03,1.21,0,4.97-.01,9.93.03,14.9.01,1.72.1,3.44.29,5.15.21,1.92.72,3.76,1.55,5.53,2.62,5.6,9.68,6.84,14.48,3.91,2.69-1.65,4.02-4.27,4.56-7.25.4-2.23.63-4.52.67-6.78.1-5.42.04-10.84.04-16.27,0-1.49-.02-1.5-1.53-1.5-1.72,0-3.45,0-5.18,0-1.52,0-1.53.01-1.53,1.48,0,3.19,0,6.39,0,9.58,0,0,0,0-.01,0ZM89.53,64.38c0,.35.01.71,0,1.06-.01.58.27.83.84.81.25,0,.51,0,.76,0,4.97,0,9.95,0,14.92,0,.25,0,.51-.01.76,0,.55,0,.86-.26.86-.82,0-1.77,0-3.55,0-5.32,0-.55-.25-.86-.83-.85-.36,0-.71,0-1.07,0-2.23,0-4.47.01-6.7,0-1.21,0-1.29-.1-1.31-1.31-.02-1.32-.02-2.64,0-3.95.02-1.32.08-1.38,1.37-1.39,1.83-.01,3.65.01,5.48-.03,1.23-.03,1.51-.34,1.54-1.56.03-1.27.03-2.53.02-3.8,0-1.35-.02-1.36-1.34-1.37-1.93-.01-3.86.01-5.79,0-1.19-.01-1.26-.1-1.29-1.32-.02-.76-.02-1.52,0-2.28.03-1.31.04-1.33,1.4-1.33,2.23,0,4.47.02,6.7,0,1.44-.01,1.82-.39,1.84-1.79.02-1.17,0-2.33,0-3.5,0-1.65-.28-1.92-1.98-1.92-4.77,0-9.54,0-14.31,0-.41,0-.84-.05-1.21.07-.27.09-.57.4-.65.67-.12.37-.05.8-.05,1.21,0,4.76,0,9.53,0,14.29,0,4.82,0,9.63,0,14.45ZM27.34,47.31c0-2.28,0-4.56,0-6.84,0-1.93-.02-3.85.01-5.78.01-.71-.25-1-.97-.99-1.93.03-3.86.02-5.78,0-.56,0-.86.22-.84.8,0,.3,0,.61,0,.91-.01,6.64-.02,13.27-.04,19.91,0,.51.02,1.02-.05,1.52-.29,2.07-1.77,3.17-3.88,2.93-1.99-.23-2.87-1.44-2.64-3.66.01-.1.08-.21.06-.29-.1-.32-.14-.72-.36-.91-1.64-1.43-3.33-2.82-5-4.21-.41-.34-.74-.31-.89.25-.37,1.32-.89,2.61-1.06,3.95-.47,3.86.59,7.32,3.6,9.85,3.27,2.74,7.12,3.58,11.28,2.33,3.51-1.05,6.9-3.84,6.63-8.83-.2-3.64-.04-7.29-.04-10.94h-.02ZM252.41,42.19c0-1.4.05-1.43,1.47-1.45,1.32-.02,2.64-.02,3.96,0,.63,0,.93-.24.92-.89-.01-1.72,0-3.45,0-5.17,0-.59-.18-.99-.86-.98-.35,0-.71,0-1.07,0-3.91,0-7.81,0-11.72,0-1.98,0-3.96-.02-5.94,0-1.12.01-1.51.34-1.55,1.41-.05,1.31-.06,2.64.02,3.95.09,1.37.45,1.72,1.76,1.8,1.01.07,2.03.02,3.04.03,1.53.02,1.54.02,1.55,1.5,0,3.85,0,7.7,0,11.55,0,3.65,0,7.3,0,10.94,0,1.36.02,1.38,1.33,1.39,1.88.01,3.75.01,5.63,0,1.42,0,1.43-.02,1.44-1.43,0-3.8,0-7.6,0-11.4,0-3.75,0-7.5,0-11.25ZM56.94,54.63c0,3.45,0,6.89,0,10.34,0,1.25.03,1.26,1.29,1.28,1.57.02,3.15,0,4.72,0,3.35,0,6.7,0,10.05,0,1.25,0,1.26-.03,1.28-1.29.02-1.32.02-2.64,0-3.95-.02-1.44-.28-1.73-1.66-1.75-1.93-.03-3.86,0-5.79-.01-1.64,0-1.64,0-1.64-1.7,0-7.1,0-14.19,0-21.29,0-.46,0-.91-.02-1.37-.02-.72-.4-1.17-1.12-1.18-2.08-.02-4.16,0-6.24,0-.63,0-.89.38-.86.99.01.35,0,.71,0,1.06,0,4.71,0,9.43,0,14.14,0,1.57,0,3.14,0,4.71ZM77.09,54.81c0,3.44-.01,6.88,0,10.33,0,1.07.06,1.11,1.12,1.13,1.67.02,3.34.01,5.02,0,2.14,0,2.05.21,2.05-2.07,0-9.42,0-18.83,0-28.25,0-.35.02-.71-.03-1.06-.09-.67-.45-1.16-1.17-1.17-2.08-.03-4.15-.02-6.23-.03-.49,0-.74.28-.75.76-.01.4-.02.81-.02,1.21,0,4.76,0,9.52,0,14.27,0,1.62,0,3.24,0,4.86ZM179.35,64.97c0,1.27.03,1.28,1.26,1.3,1.72.02,3.45,0,5.17,0,1.84,0,1.75.07,1.75-1.73,0-9.52,0-19.04,0-28.56,0-.35.03-.72-.04-1.06-.14-.78-.53-1.18-1.32-1.2-2.03-.04-4.05-.02-6.08-.03-.51,0-.74.25-.74.74,0,.35,0,.71,0,1.06,0,4.81,0,9.62,0,14.43,0,5.01,0,10.03,0,15.04ZM151.44,86.72c.07.17.18.33.21.51.31,1.54.57,3.08.92,4.61.31,1.38.66,2.76,1.08,4.11.26.85,1.52,1.66,2.23,1.53.89-.17.87-1.01,1.12-1.64.02-.05.02-.1.04-.15.67-2.81,1.34-5.61,2.01-8.42.11-.46.26-.91.4-1.37.13.02.27.03.4.05,0,.52,0,1.04,0,1.57-.08,3.75-.18,7.49-.23,11.24-.02,1.58.66,2.28,2.24,2.46.91.11,1.24-.11,1.33-1.01.11-1.06.19-2.12.2-3.18.02-5.42.03-10.84,0-16.26-.01-2.26-.39-2.68-2.6-3.2-.2-.05-.4-.07-.6-.1-1.42-.25-1.54-.21-1.91,1.19-.84,3.23-1.62,6.48-2.45,9.72-.13.49-.04,1.1-.77,1.6-.26-1.24-.51-2.31-.72-3.38-.39-1.99-.76-3.98-1.13-5.96-.12-.63-.35-1.18-1.06-1.32-.99-.19-1.99-.42-2.99-.52-.85-.08-1.21.28-1.23,1.14-.1,6.33-.21,12.65-.25,18.98-.01,1.64.74,2.29,2.34,2.34,1.1.03,1.26-.06,1.24-1.17-.04-3.59-.12-7.19-.18-10.78-.01-.85,0-1.7,0-2.54.11-.02.23-.03.34-.05ZM202.16,88.82c-1-2.6-2-5.2-2.92-7.83-.45-1.28-1.34-1.83-2.58-2.01-1.19-.18-1.44.03-1.49,1.23-.08,2.43-.2,4.86-.22,7.29-.03,3.8,0,7.6,0,11.4,0,.4.03.81.12,1.21.2.9,2.01,1.82,2.81,1.41.27-.14.49-.48.62-.78.11-.26.07-.6.07-.9-.02-2.99-.05-5.98-.07-8.97,0-.53,0-1.06,0-1.96.36.46.51.59.59.76.75,1.61,1.48,3.22,2.24,4.82.78,1.65,1.63,3.27,2.37,4.93.41.93,1.02,1.33,2.01,1.22.25-.03.51,0,.76,0,.54,0,.87-.23.93-.78.07-.7.17-1.41.17-2.12.01-5.88,0-11.76,0-17.63,0-.45-.03-.91-.07-1.36-.06-.62-.39-.98-1.01-1.17-2-.6-2.43-.3-2.45,1.81-.04,4.1-.09,8.2-.14,12.29,0,.09-.09.17-.29.52-.55-1.26-1.05-2.3-1.47-3.38ZM81.62,89.24c.2.4.4.79.59,1.19,1.44,3.02,2.87,6.04,4.31,9.06.26.55.53,1.11,1.29,1.11,1.95,0,2.47.53,2.52-2.19,0-.1,0-.2,0-.3,0-6.08,0-12.16,0-18.25,0-.4.02-.82-.05-1.21-.17-.91-2.26-1.74-3-1.17-.21.16-.36.49-.41.77-.08.39-.05.81-.05,1.21-.04,2.08-.08,4.16-.1,6.23-.02,1.92-.01,3.84-.03,5.76,0,.17-.09.34-.24.85-.59-1.34-1.1-2.36-1.51-3.42-1-2.6-2-5.2-2.92-7.83-.44-1.26-1.28-1.87-2.54-2.06-1.25-.19-1.51.01-1.54,1.31-.04,1.82-.08,3.65-.08,5.47-.01,4.5-.04,9.01,0,13.51.02,1.52.43,1.91,1.87,2.26.95.23,1.47-.11,1.59-1.07.04-.3.03-.61.02-.91-.03-2.99-.06-5.98-.08-8.97,0-.44,0-.89,0-1.33.12,0,.25-.02.37-.03ZM142.95,81.13c-.62-1.06-1.38-2.04-2.55-2.51-1.12-.45-2.3-.77-3.45-1.15-1.07-.35-2.03-.06-2.82.66-.51.47-1,1.03-1.32,1.64-2.54,4.96-3.25,10.17-1.81,15.59.52,1.94,1.5,3.64,3.09,4.94,2.77,2.27,6.06,1.76,7.92-1.25.37-.6.7-1.24.95-1.89,1.06-2.76,1.71-5.6,1.69-8.79.06-2.41-.37-4.93-1.71-7.23ZM135.6,83.4c.24-.71.59-1.41,1.03-2.02.88-1.23,1.91-1.2,2.54.17.54,1.18.92,2.46,1.17,3.73.7,3.58-.06,7.03-1.25,10.39-.26.74-.7,1.47-1.21,2.08-1.04,1.22-2.13,1.09-2.62-.41-.51-1.57-.71-3.24-1.01-4.87-.07-.39-.01-.81-.01-1.21-.04-2.71.49-5.32,1.36-7.87ZM94.61,89.21c0,2.89-.02,5.77,0,8.66.02,3.26-.3,2.35,2.43,3.78.86.45,1.62.4,2.44-.07,1.42-.81,2.69-1.81,3.71-3.1,3.07-3.85,3.98-8.33,3.23-13.03-.81-5-4.79-7.75-9.84-7.61-.5.01-1.03.1-1.48.29-.25.1-.53.49-.53.76-.04,3.44-.02,6.88-.02,10.32.02,0,.05,0,.07,0ZM98.28,96.28c0-4.19,0-8.39.02-12.58,0-.1,0-.2,0-.3.07-1.65.79-2.06,2.2-1.18.45.28.92.72,1.1,1.19.42,1.07.86,2.2.93,3.32.23,3.71-.81,7.09-3.09,10.05-.18.23-.42.42-.66.61-.06.05-.19.02-.39.04-.04-.38-.12-.77-.12-1.15ZM179.56,102.38c1.02.16,1.41-.09,1.75-1.19.18-.58.31-1.17.45-1.77.22-.99.43-1.98.64-2.97.17-.81.54-1.38,1.48-1.45.86-.07,1.7-.27,2.55-.36,1.04-.11,1.23.03,1.5,1.03.23.88.38,1.78.62,2.66.19.68.41,1.36.74,1.98.44.84,1.58,1.11,2.53.72.86-.36.56-1.07.53-1.7,0-.05-.02-.1-.03-.15-1.19-6.67-2.38-13.34-3.54-20.01-.13-.77-.5-1.2-1.22-1.34-.89-.18-1.79-.34-2.69-.45-1.14-.14-1.23-.06-1.61,1.07-.1.29-.18.58-.26.87-1.29,5.25-2.6,10.5-3.85,15.77-.43,1.82-.71,3.67-.98,5.15-.07,1.49.3,1.95,1.4,2.12ZM186.17,85.26c.31,1.58.65,3.16.95,4.74.17.91.02,1.15-.85,1.18-2.66.1-2.69.32-2.04-2.31.37-1.52.77-3.03,1.16-4.54.06-.22.17-.42.25-.63.08,0,.16,0,.24,0,.1.51.19,1.03.29,1.54ZM62.01,102.32c1.14.33,1.69.04,2.06-1.11.17-.53.29-1.07.42-1.62.22-.99.44-1.97.64-2.97.18-.93.57-1.58,1.65-1.64.8-.04,1.6-.25,2.4-.33,1.04-.11,1.24.03,1.51,1.02.22.83.35,1.69.6,2.51.23.77.47,1.56.85,2.26.4.74,1.55.96,2.44.61.87-.35.56-1.07.53-1.69,0-.15-.06-.3-.09-.45-1.07-6.08-2.14-12.15-3.22-18.23-.5-2.83-.54-2.86-3.4-3.23-.35-.05-.7-.11-1.05-.16-.59-.08-.98.18-1.18.72-.12.33-.24.67-.32,1.01-1.33,5.4-2.67,10.8-3.96,16.21-.42,1.77-.68,3.57-.95,5.01-.07,1.41.17,1.79,1.09,2.05ZM69.89,90.1c.15.79-.02,1.01-.82,1.09-.55.05-1.11.03-1.66.05-.71.02-.88-.39-.74-.98.53-2.19,1.08-4.37,1.63-6.55.11.01.23.03.34.04.42,2.12.86,4.23,1.26,6.35ZM127.91,83.59c-.06-.81-.07-1.62-.2-2.42-.14-.87-.47-1.67-1.28-2.15-.74-.44-1.48-.89-2.25-1.27-1.43-.71-2.58-.51-3.75.59-.99.93-1.56,2.11-2.02,3.36-1.49,4.11-2.07,8.35-1.75,12.7.13,1.83.58,3.6,1.69,5.13,1.76,2.42,5.49,2.91,7.67.88,2.09-1.94,2.67-4.46,2.46-7.22-.05-.6-.4-1.03-.96-1.28-.81-.36-1.48-.14-1.85.75-.48,1.17-.8,2.4-1.26,3.58-.27.7-.57,1.43-1.04,2.01-.8,1-1.55.86-2.02-.32-.21-.51-.35-1.06-.43-1.61-.66-4.59-.18-9.09,1.15-13.51.13-.43.31-.86.54-1.25.11-.18.4-.4.57-.37.18.03.4.31.46.52.14.48.18.99.29,1.48.2.83.33,1.7.66,2.48.36.86,1.29,1.22,2.15,1.04.78-.17,1.03-.56,1.09-1.74.02-.45,0-.91,0-1.37.02,0,.04,0,.07,0ZM167.55,98.59c0,.5,0,1.02.13,1.51.23.9,1.58,1.63,2.57,1.47.7-.12.88-.47.9-1.83.01-1.42.03-2.84,0-4.26-.02-1.63.39-2.77,2.17-3.47,3.17-1.25,4.91-3.74,5.27-7.2.33-3.21-1.99-6.57-5.16-7.29-1.56-.35-3.12-.3-4.68-.03-.62.11-1.05.39-1.14,1.03-.06.4-.06.81-.06,1.21,0,3.14,0,6.28,0,9.42,0,3.14,0,6.28,0,9.42ZM173.22,88.01c-.22.27-.5.5-.8.68-.6.35-.97.16-1.06-.5-.05-.35-.01-.7-.03-1.06-.04-1.36-.09-2.71-.13-4.07,0-.1-.04-.21,0-.3.21-.65-.25-1.63.81-1.88.92-.22,2.09.49,2.39,1.45.16.52.2,1.09.28,1.57-.13,1.54-.51,2.94-1.47,4.11ZM215.61,86.5c-.9-2.03-1.79-4.08-2.71-6.1-.38-.83-.98-1.41-1.96-1.46-.93-.05-1.24.18-1.18,1.1.04.55.14,1.11.32,1.63.95,2.78,1.87,5.56,2.94,8.3.69,1.78,1.16,3.54,1,5.46-.12,1.46-.11,2.93-.16,4.4-.03.85.42,1.33,1.18,1.55.43.12.9.16,1.35.2.7.07,1.02-.26,1.05-.96.07-1.52.22-3.03.24-4.55.02-1.8.31-3.53.98-5.19.92-2.25,1.82-4.51,2.75-6.75.67-1.64,1.38-3.26,2.06-4.9.28-.67.47-1.32-.24-1.92-1.27-1.08-2.06-.97-2.88.5-.17.31-.35.62-.49.95-1.07,2.46-2.13,4.93-3.2,7.39-.15.35-.34.68-.6,1.19-.21-.4-.34-.61-.44-.83ZM53.84,87.74c0-2.43,0-4.86,0-7.3,0-.4.03-.82-.04-1.21-.18-1.03-1.24-1.63-2.48-1.42-.84.14-.98.46-.92,1.73.05,1.06.05,2.13.03,3.19-.07,5.42-.18,10.84-.23,16.26-.02,1.86,1.26,2.79,3.13,2.41,1.04-.21,2.09-.39,3.14-.58.85-.15,1.71-.26,2.54-.47.9-.22,1.12-.56.96-1.4-.21-1.09-.85-1.88-1.95-2.07-.88-.16-1.81-.15-2.72-.1-1.29.07-1.38.04-1.39-1.28-.02-2.58,0-5.17,0-7.75-.02,0-.04,0-.06,0Z" fill="#aa3c27"/></g></svg>