<?xml version="1.0" encoding="UTF-8"?>
<svg id="Layer_1" data-name="Layer 1" xmlns="http://www.w3.org/2000/svg" viewBox="0 0 1024 1024">
  <defs>
    <style>
      .cls-1 {
        fill: #231f20;
      }
    </style>
  </defs>
  <path class="cls-1" d="M500.86989,1022.869l-11.15912-17.91845c-4.38635-7.04325-9.49781-15.42347-17.44815-18.81198-6.0938-2.03859-13.24699-.28262-19.69491-.84151l-.01896,37.39924-11.03917-.0728.00132-84.06236,41.71731.47351c14.28598.16215,23.63817,7.78194,24.72924,21.33163,1.06092,13.17519-8.35451,23.09432-22.92581,24.3253,8.2566,5.03747,13.87815,13.34458,19.20653,21.94977l9.86408,15.93021-13.23235.29745ZM483.17923,975.72013c7.84771-.07532,13.10387-6.77919,13.55979-13.891.41283-6.43978-5.90218-13.21917-13.4918-13.35645l-30.69234-.55514-.0057,28.09658,30.63005-.29399Z"/>
  <polygon class="cls-1" points="746.42803 1022.52637 735.1543 1022.74202 691.28803 957.04198 691.18376 1022.66708 681.02306 1022.64375 681.02276 938.63382 691.82753 938.70945 736.16534 1004.20233 736.26147 938.62865 746.42345 938.64455 746.42803 1022.52637"/>
  <path class="cls-1" d="M143.86424,1023.83398c-16.51023,1.08436-29.70795-4.30356-37.47194-18.80813-9.62703-17.98507-8.79996-41.38838,6.10865-56.59238,11.71418-11.94627,30.85253-13.65958,45.549-6.76798,15.33958,7.19316,22.15217,23.29565,22.20742,40.16258.07161,21.86058-13.8401,40.52468-36.39314,42.00592ZM168.94593,983.08304c.18628-11.10899-1.93674-22.14472-10.26948-28.79169-8.23826-6.5716-19.44647-9.86005-29.18722-5.02247-13.2072,5.38918-18.68277,17.96991-17.34526,31.75453-2.30524,17.75105,10.2334,33.30557,27.27069,33.70003,17.15774.39724,29.22205-13.20021,29.53127-31.6404Z"/>
  <path class="cls-1" d="M382.40449,1023.90545c-15.38945-.88523-27.6571-10.94321-32.45746-25.33473-5.25259-15.74731-4.41306-33.54507,6.13724-46.92643,8.21181-10.41537,21.2584-14.91385,34.53509-13.77858,11.78909,1.00807,24.42059,7.9219,30.31534,19.37216,7.19215,13.97041,7.52036,29.17032,2.02017,43.4314-6.45725,16.74257-22.48067,24.27559-40.55037,23.23618ZM394.45672,1013.79278c24.16875-6.19054,25.34574-41.90859,14.2305-55.58692-8.41824-10.35942-21.7938-13.74274-32.99654-8.96258-12.02429,5.13071-17.10933,16.0192-17.68564,29.48793-.64225,15.00999,4.97179,30.92133,21.16936,35.02016,3.907.98867,11.30943,1.05903,15.28232.04142Z"/>
  <path class="cls-1" d="M330.50013,979.903c-7.96643,11.33366-31.56238,8.47619-46.96051,8.84465l-.00443,33.94248-11.04393-.0524-.00012-84.06328,38.54479.37404c9.96143.09667,19.10155,5.12828,22.58764,12.97785,4.34955,9.79382,2.9789,19.295-3.12344,27.97666ZM324.58947,962.00053c-.37633-8.11885-5.75708-12.66433-13.69744-12.79167l-27.36257-.43884.01907,29.83167c10.32074-.64797,21.03025,1.01679,30.26617-.79471,8.53939-1.67489,11.12448-8.26164,10.77476-15.80645Z"/>
  <path class="cls-1" d="M235.69067,988.08386l-30.29576.6399.00377,33.96853-11.04616-.05556-.00128-84.06591,39.28655.42747c12.71785.13838,23.86773,9.14892,24.53092,21.29047,1.16654,15.24517-7.31236,26.35451-22.47804,27.79509ZM235.5023,977.84028c9.13736-1.57923,12.46848-8.44584,11.58731-15.75681-.88611-7.35203-5.71172-12.86231-14.18146-12.96895l-27.51705-.34646.01577,29.81759c10.11093-.54143,20.49001.91475,30.09542-.74537Z"/>
  <path class="cls-1" d="M651.30352,938.7347l11.06531-.11391-.42109,57.20654c-.06272,8.52014-2.94249,16.36575-8.51529,20.95931-12.1188,9.9893-38.18974,8.93985-46.58641.91868-4.98273-4.7599-9.44144-12.74586-9.50394-21.14253l-.43119-57.93208,11.05541.01892.32364,58.2485c.06831,12.29367,11.00804,17.58363,21.62432,17.42457,11.44117-.17141,21.19951-5.87662,21.23304-18.19715l.15619-57.39086Z"/>
  <path class="cls-1" d="M236.97725,928.13872l-15.58677-8.65637c-13.44135,6.6454-30.80438,5.60228-41.54772-5.39107-10.25136-10.48992-11.0455-25.75132-8.03672-39.54873,2.55618-11.72192,11.5428-20.3498,21.81052-23.39224,12.31078-3.64783,24.58327-1.54284,34.14334,7.8805,14.70406,14.49375,14.58912,41.01562.05362,56.25984l12.35871,6.46019-3.19498,6.38789ZM204.45553,910.11315l2.8042-6.57285c5.13159.53949,9.40814,3.21065,13.14643,6.41589,12.61664-11.60985,11.12039-42.33779-5.43796-49.51049-9.07534-3.93123-21.105-3.69154-27.93816,4.61739-9.5087,11.56231-10.04827,29.97029-1.25466,42.12346,5.90993,8.16779,18.39923,10.65303,27.74313,6.52569-2.28422-1.43913-5.46487-2.61967-9.06299-3.5991Z"/>
  <polygon class="cls-1" points="847.49985 922.3028 837.04664 922.52736 800.01556 866.11395 799.89359 922.44051 790.58721 922.41698 790.58767 850.29325 800.61698 850.37299 838.07364 907.48071 838.1877 850.29324 847.49477 850.30671 847.49985 922.3028"/>
  <path class="cls-1" d="M917.79152,908.53263l.27767-14.11009-21.31687.02281.03197-8.50896,30.55774-.00022-.01645,26.28005c-15.0772,13.23562-37.51087,15.46168-54.1511,4.16118-16.83254-16.21611-16.11395-43.37123.33051-59.57413,13.68195-9.53929,31.12369-9.40015,44.69523-.01006,4.20495,4.0094,6.72879,8.92241,7.5684,14.4117l-9.10027,1.96359c-.77339-6.38612-4.03562-10.6682-9.47663-13.08925-7.04215-3.1335-15.42604-3.33653-22.87178.57819-18.67859,9.82057-17.6627,40.8066-3.14245,50.24669,10.85983,7.06033,26.22242,4.93953,36.61402-2.37149Z"/>
  <path class="cls-1" d="M601.15498,914.51503c-14.76792,14.39388-39.94922,11.72632-51.50679-5.02012-8.70384-12.61151-8.67854-30.45338-.77159-43.97065,10.59284-18.10893,37.38253-21.61171,53.01239-5.91373,13.82425,13.88451,13.63396,40.90045-.73401,54.9045ZM553.2588,893.35885c1.35189,12.61163,11.90779,22.63466,23.57177,22.48219,12.85375-.16803,23.01578-8.37782,24.51887-21.427,1.13187-9.82642.95695-19.87777-5.44498-27.76633-6.59715-8.12912-17.64019-10.56326-27.18459-7.16599-12.84504,4.57211-16.98236,19.68522-15.46107,33.87714Z"/>
  <polygon class="cls-1" points="156.09951 889.34361 116.20948 889.33497 116.21034 913.97602 160.34905 913.96459 160.32868 922.46646 106.86764 922.46777 106.86791 850.26394 158.63307 850.26459 158.6508 858.76626 116.20997 858.75498 116.20944 880.85005 156.09838 880.83765 156.09951 889.34361"/>
  <polygon class="cls-1" points="529.84753 922.29117 520.49483 922.47516 520.50277 888.48174 483.97454 888.48496 483.98327 922.45468 473.7841 922.41952 473.78408 850.31169 483.98332 850.27124 483.97507 879.99977 520.50254 879.99987 520.49398 850.27758 529.84238 850.30661 529.84753 922.29117"/>
  <path class="cls-1" d="M738.53894,920.46876c-10.37272,4.61243-23.95849,4.01819-34.11011-.85077-7.62201-3.65569-9.45073-11.53397-11.47492-19.87896l9.42655-.25044c.83929,11.05704,10.16557,15.69363,20.37051,15.58678,7.59722-.07954,16.82773-1.6238,18.42368-10.72488.83996-4.78994-4.36965-10.29407-9.16177-11.61537l-21.19972-5.84526c-9.13679-2.51922-15.16695-9.29152-14.77057-18.29212.68142-15.47324,18.82015-21.46105,33.62122-17.91739,10.22377,2.44777,18.94391,9.43204,18.51248,20.84959l-9.24988-.04229c-.54841-6.00322-3.82251-10.45654-9.24066-12.12802-11.94331-3.68447-24.14266.49647-24.83912,10.05934-.1619,2.22295,2.25262,6.482,5.09116,7.30753l27.98722,8.13948c7.55714,2.19783,12.07071,10.19089,12.03816,16.72261-.04016,8.05876-3.00897,15.13817-11.42422,18.88018Z"/>
  <path class="cls-1" d="M297.98026,850.38503l10.20813-.10375-.40035,46.04003c-.06738,7.74928-1.67276,15.00509-6.73801,20.20106-9.7618,10.01372-33.75988,9.17886-42.26346.4398-4.79074-4.9234-7.09578-13.01498-7.16059-20.64502l-.3909-46.02374,10.20966.00025.30772,51.34136c.02447,4.08234,3.54372,9.20646,5.40204,10.41612,4.59249,3.24307,7.76891,2.40001,13.15643,2.69382,3.4865.19014,8.78333-.18688,11.83497-2.47404,2.44327-1.83119,5.35088-6.61116,5.38752-10.79966l.44685-51.08623Z"/>
  <path class="cls-1" d="M364.06948,900.41192l-30.21073-.04042-7.7594,22.08883-10.02851-.04672,26.98663-72.04737,10.83939.01158,28.7893,72.00409-10.88653.0899-7.73015-22.0599ZM360.60289,892.69197l-12.10902-33.55965-12.16999,33.61504,24.27901-.05539Z"/>
  <path class="cls-1" d="M670.83892,850.3957l9.34453-.10411-.01843,52.49451c-1.84175,14.06038-13.94425,20.41623-27.93802,20.2472-15.14132-.18289-26.35302-7.39999-27.83711-22.5039l-.30028-50.22404,9.35731-.00669.29183,46.19599c.03423,5.41849,1.25411,10.34223,4.42606,13.97798,5.7517,6.59271,22.15408,5.37345,26.85308,1.79568,2.4142-1.83815,5.32624-6.58975,5.36395-10.80343l.45708-51.0692Z"/>
  <polygon class="cls-1" points="936.58085 939.14291 903.60726 987.28512 903.52785 1022.67781 892.53639 1022.67902 892.44592 987.32367 860.0476 938.70568 873.67993 938.66799 898.68829 978.13652 924.02979 938.70041 936.58085 939.14291"/>
  <polygon class="cls-1" points="557.87876 1022.54955 546.82549 1022.65404 546.83422 948.79302 518.80415 948.80049 518.84284 938.60071 585.0079 938.60069 585.04633 948.8026 557.86282 948.78864 557.87876 1022.54955"/>
  <polygon class="cls-1" points="829.66701 1022.54893 818.61343 1022.65677 818.62253 948.79363 791.4406 948.80029 791.48057 938.60071 857.64563 938.60069 857.68276 948.80271 829.65097 948.78825 829.66701 1022.54893"/>
  <polygon class="cls-1" points="434.62122 913.95774 434.68071 922.46493 389.69536 922.47166 389.70176 850.32189 399.0515 850.30921 399.03417 913.97765 434.62122 913.95774"/>
  <rect class="cls-1" x="766.80761" y="938.60273" width="11.0414" height="84.08934"/>
  <rect class="cls-1" x="764.25959" y="850.26646" width="10.19206" height="72.19791"/>
  <g>
    <path class="cls-1" d="M991.88223,321.9476v127.40808l-62.01043-.00634-.04009,381.42894-521.88921-.53014-312.81879-.61374-.16011-381.13457-62.82979-.06611-.01603-128.92201L507.81049.35876c2.51162-.47054,5.87535-.48152,8.38896-.0134l473.96087,318.81361,1.72191,2.78864ZM826.23997,699.83243l.02409-322.90722-315.03984-210.68131-311.78317,209.2531.02437,324.37085,626.77455-.03542Z"/>
    <g>
      <rect class="cls-1" x="347.23454" y="503.71647" width="331.24189" height="136.75134"/>
      <rect class="cls-1" x="346.38521" y="345.73045" width="331.24189" height="136.75134"/>
    </g>
  </g>
</svg>