<?xml version="1.0" encoding="UTF-8"?>
<svg id="Layer_1" data-name="Layer 1" xmlns="http://www.w3.org/2000/svg" viewBox="0 0 1024 1024">
  <defs>
    <style>
      .cls-1 {
        fill: #231f20;
      }
    </style>
  </defs>
  <path class="cls-1" d="M86.78156,902.17449h19.14957c12.47267,0,21.77389,0,29.01885,6.51609,6.31817,5.75296,9.48582,13.39851,9.48582,22.68356,0,15.07226-11.15956,26.21564-28.27095,26.21564h-12.45364l39.23354,63.79161h15.43669l-31.98668-51.70241c18.60434-1.31026,31.98668-18.39025,31.98668-38.48849,0-13.76295-6.49991-26.97687-17.11329-34.40642-9.30122-6.51704-19.33512-7.6113-31.80398-7.6113h-35.51686v132.20862h12.83426v-119.2069h0Z"/>
  <polygon class="cls-1" points="219.96551 948.48552 219.96551 902.17449 275.56539 902.17449 275.56539 889.17276 206.94856 889.17276 206.94856 1021.38139 275.56539 1021.38139 275.56539 1008.56331 219.96551 1008.56331 219.96551 961.48724 275.56539 961.48724 275.56539 948.48552 219.96551 948.48552 219.96551 948.48552 219.96551 948.48552"/>
  <path class="cls-1" d="M324.98222,1021.38139l15.80494-41.47249h58.76467l15.80494,41.47249h13.95897l-51.1372-132.20862h-15.63747l-51.3218,132.20862h13.76295ZM395.09295,968.00428h-49.84692l24.74077-66.37788,25.10616,66.37788h0Z"/>
  <polygon class="cls-1" points="526.52513 1021.38139 526.52513 1008.56331 480.04567 1008.56331 480.04567 889.17276 467.02777 889.17276 467.02777 1021.38139 526.52513 1021.38139 526.52513 1021.38139 526.52513 1021.38139"/>
  <polygon class="cls-1" points="591.91531 1021.38139 591.91531 902.17449 618.3146 902.17449 618.3146 889.17276 552.48195 889.17276 552.48195 902.17449 578.89741 902.17449 578.89741 1021.38139 591.91531 1021.38139 591.91531 1021.38139 591.91531 1021.38139"/>
  <path class="cls-1" d="M659.52542,954.60672c0-16.16652,7.82635-32.51763,20.27999-43.14719,9.50009-7.97574,21.01172-12.26905,33.27981-12.26905,30.69355,0,54.50657,25.66661,54.50657,55.0518,0,32.55094-23.81302,57.27362-53.56075,57.27362-30.32911,0-54.50562-24.17746-54.50562-56.90919h0ZM645.9623,954.42593c0,39.42956,29.18442,69.57407,67.12293,69.57407,19.91555,0,37.02694-7.64175,50.39405-22.31912,11.72287-12.84853,17.47868-28.46982,17.47868-47.25495,0-18.78989-6.85388-35.32084-20.25144-48.53762-13.02932-12.81903-28.83426-19.33417-47.43669-19.33417-18.2085,0-33.82979,6.51514-46.67927,19.15337-13.38234,13.21296-20.62825,30.3253-20.62825,48.71841h0Z"/>
  <path class="cls-1" d="M837.80529,902.17449h19.15337c12.45364,0,21.77009,0,29.016,6.51609,6.3353,5.75296,9.46964,13.39851,9.46964,22.68356,0,15.07226-11.14338,26.21564-28.25572,26.21564h-12.45269l39.24877,63.79161h15.40624l-31.97241-51.70241c18.60624-1.31026,31.97241-18.39025,31.97241-38.48849,0-13.76295-6.48564-26.97687-17.08094-34.40642-9.3193-6.51704-19.36557-7.6113-31.82111-7.6113h-35.50164v132.20862h12.81808v-119.2069h0Z"/>
  <path class="cls-1" d="M519.74927,736.92774v-316.38037l329.14041,316.38037h-329.14041ZM428.75433,735.95147h-237.34999V100.02498h237.34999v635.92649h0ZM519.74927,101.01647h93.82956c86.59602,8.79881,149.38186,76.4565,148.65299,160.14558-.76123,82.91264-62.87719,148.69676-148.65299,157.4204l-93.82956-.07517V101.01647h0ZM72.16414,0v841.85406h841.85406V0H72.16414Z"/>
  <path class="cls-1" d="M927.843,877.29575c5.41897,0,7.88534,1.40351,7.88534,5.08498,0,3.74523-2.46637,4.81189-7.88534,4.81189h-5.14398v-9.89688h5.14398ZM928.63562,874.49634h-10.08147v27.52495h4.14487v-12.0873h6.42189l5.81576,12.0873h4.75195l-6.184-12.69628c4.01927-.54903,6.51704-3.41029,6.51704-7.21832,0-5.29718-3.77568-7.61035-11.38602-7.61035h0ZM949.21629,888.71412c0,5.81766-2.06958,10.96259-6.05745,14.86007-4.23146,4.14106-9.65424,6.33244-15.25305,6.33244-5.60357,0-10.90455-2.19138-14.98186-6.26964-4.08207-4.08207-6.2744-9.37924-6.2744-14.98186,0-5.63497,2.28558-10.96259,6.42664-15.16265,3.92507-3.96027,9.0738-6.184,14.82962-6.184,5.81481,0,11.17383,2.22373,15.25305,6.30485,3.92887,3.92602,6.05745,9.28599,6.05745,15.1008h0ZM927.9058,864.72126c-6.48849,0-12.30425,2.40642-16.71841,6.88147-4.59685,4.68915-7.15647,10.778-7.15647,17.05239,0,6.36384,2.49777,12.30045,7.03467,16.8364,4.53595,4.6311,10.50395,7.09747,16.8402,7.09747,6.26964,0,12.35849-2.52917,17.04859-7.15647,4.47791-4.41511,6.88147-10.22991,6.88147-16.7774,0-6.42664-2.40357-12.42224-6.88147-16.8992-4.53595-4.62825-10.50395-7.03467-17.04859-7.03467h0Z"/>
</svg>