<?xml version="1.0" encoding="UTF-8"?><svg id="a" xmlns="http://www.w3.org/2000/svg" width="12in" height="6in" viewBox="0 0 864 432"><rect width="864" height="432.32" fill="#ffe0a8"/><rect x="27.65" y="29.96" width="808.69" height="21.06" fill="#bd3528"/><rect x="27.65" y="383.74" width="808.69" height="21.06" fill="#bd3528"/><path d="M100.78,321.77v-60.06h16.29v45.65h12.22v14.41h-28.5Z" fill="#bd3528"/><path d="M172.91,321.77l-1.27-7.65h-10.95l-1.36,7.65h-16.83l14.57-60.06h19.91l12.76,60.06h-16.83ZM169.74,301.33l-3.08-25.21-3.8,25.21h6.88Z" fill="#bd3528"/><path d="M231.28,321.77c-4.25-11.44-12.31-34.58-12.31-34.58l1,34.58h-15.56v-60.06h15.56l13.12,36.2-1.81-36.2h15.56v60.06h-15.56Z" fill="#bd3528"/><path d="M279.34,261.71c18.46,0,27.6,12.7,27.6,30.08,0,6.39-.99,12.88-4.16,18.46-4.98,8.91-12.49,11.53-22.26,11.53h-15.2v-60.06h14.03ZM281.6,307.28c7.6-.27,8.69-9.18,8.69-15.04s-1.18-15.49-8.69-15.49v30.53Z" fill="#bd3528"/><path d="M387.84,320.69c-3.53,1.53-5.79,2.16-9.68,2.16-17.37,0-24.79-15.58-24.79-30.89,0-16.48,8.51-31.34,26.69-31.34,3.26,0,5.07.27,8.05,1.53v17.11c-2.17-2.25-4.25-3.6-7.51-3.6-8.6,0-10.59,9.18-10.59,16.03s1.99,15.49,10.32,15.49c3.53,0,5.97-1.62,8.51-3.87l-1,17.38Z" fill="#bd3528"/><path d="M426.85,322.86c-6.42,0-12.4-3.15-16.47-8.01-5.25-6.3-6.79-15.76-6.79-23.68,0-14.14,6.61-30.53,23.17-30.53s22.71,16.57,22.71,30.53-5.7,31.7-22.62,31.7ZM426.67,275.76c-5.61,0-6.15,12.07-6.15,15.94s.36,15.94,5.97,15.94,6.06-11.98,6.06-15.85-.27-16.03-5.88-16.03Z" fill="#bd3528"/><path d="M511.46,321.77l-1.63-36.38-6.7,36.38h-13.3l-5.79-36.38-1.72,36.38h-17.46l7.06-60.06h20.27l4.71,27.44,5.61-27.44h20.09l5.88,60.06h-17.01Z" fill="#bd3528"/><path d="M561.42,261.71c4.52,0,9.23.45,13.39,2.25,7.33,3.24,10.86,10.44,10.86,18.19,0,14.59-9.86,21.16-23.71,19.9v19.72h-16.29v-60.06h15.75ZM562.78,288.64c3.98,0,6.42-2.88,6.42-6.75s-2.17-7.02-6.15-7.02h-1.09v13.78h.82Z" fill="#bd3528"/><path d="M625.4,321.77l-1.27-7.65h-10.95l-1.36,7.65h-16.83l14.57-60.06h19.91l12.76,60.06h-16.83ZM622.24,301.33c-1.27-8.37-2.35-16.75-3.08-25.21-.36,2.79-.63,5.67-.99,8.46-.82,5.58-1.72,11.17-2.81,16.75h6.88Z" fill="#bd3528"/><path d="M683.78,321.77l-12.31-34.58,1,34.58h-15.56v-60.06h15.56l13.12,36.2-1.81-36.2h15.56v60.06h-15.56Z" fill="#bd3528"/><path d="M744.87,296.38v25.39h-16.29v-25.39l-15.02-34.67h17.01l5.7,18.55,5.7-18.55h16.83l-13.93,34.67Z" fill="#bd3528"/><path d="M61.31,189.81c0,5.76-.32,11.85-2.25,17.45-3.54,10.25-12.87,16.01-23.49,16.01-5.47,0-10.94-.8-15.77-3.36v-21.13c2.89,3.52,6.43,5.92,11.26,5.92,9.17,0,9.01-9.28,9.01-16.01v-73.96h21.24v75.08Z" fill="#bd3528"/><path d="M147.39,194.29c0,6.08-.32,10.89-3.54,16.33-5.79,9.77-17.86,12.65-28.48,12.65-17.54,0-31.53-8.49-31.53-27.38v-81.17h21.24v70.92c0,8-.32,18.41,10.62,18.41s10.46-9.45,10.46-17.45v-71.88h21.24v79.57Z" fill="#bd3528"/><path d="M169.92,221.51v-106.78h21.24v86.77h22.2v20.01h-43.44Z" fill="#bd3528"/><path d="M228.64,221.51v-106.78h21.24v106.78h-21.24Z" fill="#bd3528"/><path d="M272.4,221.51v-106.78h42.63v19.85h-21.4v23.05h18.82v20.17h-18.82v24.01h21.72v19.69h-42.96Z" fill="#bd3528"/><path d="M459.19,221.51h-18.5l-14.16-63.56-15.61,63.56h-18.5l-21.72-106.78h21.72l11.42,63.56,14-63.56h16.73l14,64.12,10.62-64.12h22.2l-22.2,106.78Z" fill="#bd3528"/><path d="M536.09,221.51l-18.82-49.15v49.15h-21.24v-106.78h23.01c7.88,0,16.57.64,23.33,5.12,8.53,5.6,12.71,16.01,12.71,25.93,0,12.17-4.83,20.81-15.28,27.22l18.66,48.51h-22.36ZM517.27,160.67c1.12.16,2.41.16,3.54.16,9.17,0,13.67-6.24,13.67-14.89s-3.86-14.57-13.19-14.57h-4.02v29.3Z" fill="#bd3528"/><path d="M577.93,221.51v-106.78h21.24v106.78h-21.24Z" fill="#bd3528"/><path d="M691.67,162.11c.16,2.72.16,5.44.16,8.16,0,7.52-.32,15.21-1.93,22.57-3.54,16.49-14.32,30.42-32.5,30.42-28.96,0-38.13-31.06-38.13-54.75s8.04-55.39,38.13-55.39c16.41,0,27.03,10.25,31.53,25.29l-20.59,8c-.96-6.24-2.73-14.73-10.78-14.73-14.48,0-15.6,26.41-15.6,36.5s.48,35.86,15.77,35.86c11.58,0,12.87-14.41,13.03-23.05h-13.51v-18.89h34.43Z" fill="#bd3528"/><path d="M754.42,221.51v-47.23h-21.4v47.23h-21.24v-106.78h21.24v39.54h21.4v-39.54h21.24v106.78h-21.24Z" fill="#bd3528"/><path d="M827.62,134.26v87.25h-21.24v-87.25h-16.57v-19.53h54.38v19.53h-16.57Z" fill="#bd3528"/></svg>