<?xml version="1.0" encoding="UTF-8"?><svg id="a" xmlns="http://www.w3.org/2000/svg" width="12in" height="6in" viewBox="0 0 864 432"><rect x="27.65" y="29.96" width="808.69" height="21.06" fill="#bd3528"/><rect x="27.65" y="383.74" width="808.69" height="21.06" fill="#bd3528"/><polygon points="100.78 261.71 100.78 321.77 129.29 321.77 129.29 307.37 117.07 307.37 117.07 261.71 100.78 261.71" fill="#bd3528"/><path d="M160.69,314.12h10.95l1.27,7.65h16.83l-12.76-60.06h-19.91l-14.57,60.06h16.83l1.36-7.65ZM166.66,276.12l3.08,25.21h-6.88l3.8-25.21Z" fill="#bd3528"/><path d="M246.84,321.77v-60.06h-15.56l1.81,36.2-13.12-36.2h-15.56v60.06h15.56l-1-34.58s8.05,23.14,12.31,34.58h15.56Z" fill="#bd3528"/><path d="M265.31,261.71v60.06h15.2c9.77,0,17.28-2.61,22.26-11.53,3.17-5.58,4.16-12.07,4.16-18.46,0-17.38-9.14-30.08-27.6-30.08h-14.03ZM281.6,276.75c7.51,0,8.69,9.91,8.69,15.49s-1.08,14.77-8.69,15.04v-30.53Z" fill="#bd3528"/><path d="M380.6,275.67c3.26,0,5.34,1.35,7.51,3.6v-17.11c-2.99-1.26-4.8-1.53-8.05-1.53-18.19,0-26.69,14.86-26.69,31.34,0,15.31,7.42,30.89,24.79,30.89,3.89,0,6.15-.63,9.68-2.16l1-17.38c-2.53,2.25-4.98,3.87-8.51,3.87-8.32,0-10.32-8.83-10.32-15.49s1.99-16.03,10.59-16.03Z" fill="#bd3528"/><path d="M403.59,291.16c0,7.92,1.54,17.38,6.79,23.68,4.07,4.86,10.04,8.01,16.47,8.01,16.92,0,22.62-17.65,22.62-31.7s-6.24-30.53-22.71-30.53-23.17,16.39-23.17,30.53ZM432.55,291.79c0,3.87-.45,15.85-6.06,15.85s-5.97-12.07-5.97-15.94.54-15.94,6.15-15.94,5.88,12.16,5.88,16.03Z" fill="#bd3528"/><polygon points="484.05 285.39 489.84 321.77 503.14 321.77 509.84 285.39 511.46 321.77 528.48 321.77 522.59 261.71 502.51 261.71 496.9 289.15 492.19 261.71 471.92 261.71 464.86 321.77 482.33 321.77 484.05 285.39" fill="#bd3528"/><path d="M561.97,302.05c13.85,1.26,23.71-5.31,23.71-19.9,0-7.74-3.53-14.95-10.86-18.19-4.16-1.8-8.87-2.25-13.39-2.25h-15.75v60.06h16.29v-19.72ZM561.97,274.86h1.09c3.98,0,6.15,3.33,6.15,7.02s-2.44,6.75-6.42,6.75h-.82v-13.78Z" fill="#bd3528"/><path d="M613.19,314.12h10.95l1.27,7.65h16.83l-12.76-60.06h-19.91l-14.57,60.06h16.83l1.36-7.65ZM618.17,284.58c.36-2.79.63-5.67.99-8.46.72,8.46,1.81,16.84,3.08,25.21h-6.88c1.09-5.58,1.99-11.17,2.81-16.75Z" fill="#bd3528"/><polygon points="699.34 321.77 699.34 261.71 683.78 261.71 685.59 297.91 672.47 261.71 656.9 261.71 656.9 321.77 672.47 321.77 671.47 287.2 683.78 321.77 699.34 321.77" fill="#bd3528"/><polygon points="744.87 321.77 744.87 296.38 758.8 261.71 741.97 261.71 736.27 280.26 730.57 261.71 713.56 261.71 728.58 296.38 728.58 321.77 744.87 321.77" fill="#bd3528"/><path d="M59.06,207.26c1.93-5.6,2.25-11.69,2.25-17.45v-75.08h-21.24v73.96c0,6.72.16,16.01-9.01,16.01-4.83,0-8.37-2.4-11.26-5.92v21.13c4.83,2.56,10.3,3.36,15.77,3.36,10.62,0,19.95-5.76,23.49-16.01Z" fill="#bd3528"/><path d="M143.85,210.62c3.22-5.44,3.54-10.25,3.54-16.33v-79.57h-21.24v71.88c0,8,.32,17.45-10.46,17.45s-10.62-10.41-10.62-18.41v-70.92h-21.24v81.17c0,18.89,14,27.38,31.53,27.38,10.62,0,22.68-2.88,28.48-12.65Z" fill="#bd3528"/><polygon points="213.35 201.49 191.15 201.49 191.15 114.72 169.92 114.72 169.92 221.51 213.35 221.51 213.35 201.49" fill="#bd3528"/><rect x="228.64" y="114.72" width="21.24" height="106.78" fill="#bd3528"/><polygon points="315.36 201.81 293.64 201.81 293.64 177.8 312.46 177.8 312.46 157.63 293.64 157.63 293.64 134.58 315.03 134.58 315.03 114.72 272.4 114.72 272.4 221.51 315.36 221.51 315.36 201.81" fill="#bd3528"/><polygon points="481.39 114.72 459.19 114.72 448.57 178.85 434.57 114.72 417.84 114.72 403.85 178.28 392.42 114.72 370.7 114.72 392.42 221.51 410.92 221.51 426.53 157.95 440.69 221.51 459.19 221.51 481.39 114.72" fill="#bd3528"/><path d="M558.46,221.51l-18.66-48.51c10.46-6.4,15.28-15.05,15.28-27.22,0-9.92-4.18-20.33-12.71-25.93-6.76-4.48-15.44-5.12-23.33-5.12h-23.01v106.78h21.24v-49.15l18.82,49.15h22.36ZM520.81,160.83c-1.13,0-2.41,0-3.54-.16v-29.3h4.02c9.33,0,13.19,5.92,13.19,14.57s-4.5,14.89-13.67,14.89Z" fill="#bd3528"/><rect x="577.93" y="114.72" width="21.24" height="106.78" fill="#bd3528"/><path d="M689.9,192.85c1.61-7.36,1.93-15.05,1.93-22.57,0-2.72,0-5.44-.16-8.16h-34.43v18.89h13.51c-.16,8.65-1.45,23.05-13.03,23.05-15.28,0-15.77-25.29-15.77-35.86s1.13-36.5,15.6-36.5c8.04,0,9.81,8.48,10.78,14.73l20.59-8c-4.5-15.05-15.12-25.29-31.53-25.29-30.09,0-38.13,30.9-38.13,55.39s9.17,54.75,38.13,54.75c18.18,0,28.96-13.93,32.5-30.42Z" fill="#bd3528"/><polygon points="775.65 114.72 754.42 114.72 754.42 154.27 733.02 154.27 733.02 114.72 711.78 114.72 711.78 221.51 733.02 221.51 733.02 174.28 754.42 174.28 754.42 221.51 775.65 221.51 775.65 114.72" fill="#bd3528"/><polygon points="789.82 114.72 789.82 134.26 806.39 134.26 806.39 221.51 827.62 221.51 827.62 134.26 844.19 134.26 844.19 114.72 789.82 114.72" fill="#bd3528"/></svg>