<?xml version="1.0" encoding="UTF-8"?><svg id="b" xmlns="http://www.w3.org/2000/svg" width="44.7" height="39.93" viewBox="0 0 44.7 39.93"><g id="c"><path d="M39.44,29.93c-.48-.49-.97-.98-1.46-1.46v-1.21h-7.29c-.64,0-1.16.52-1.16,1.16v4.78h7.29c.64,0,1.16-.52,1.16-1.16v-1.52h5.27c.48.49.97.98,1.46,1.46v2.68h0v2.12c0,1.74-1.41,3.15-3.14,3.15h-14.66c-.73,0-1.39-.3-1.87-.78-.48-.48-.97-.97-1.45-1.45-.48-.48-.78-1.14-.78-1.87v-12.65c0-1.46,1.18-2.64,2.64-2.64h14.66c.87,0,1.66.35,2.23.93.48.48.97.97,1.45,1.45.57.57.93,1.36.93,2.23v2.11h0v2.68h-5.27ZM21.93,31.98c-.49-.48-.97-.96-1.45-1.45h-5.3v2.68H6.72v-6.23h2.68v-5.27c-.49-.48-.98-.97-1.46-1.46H0v18.22c.49.48.98.97,1.46,1.46h20.48v-7.94s-.01,0,0,0ZM21.94,1.45c-.49-.48-.97-.96-1.45-1.45h-7.94v5.27c.49.48.98.97,1.46,1.46h1.22v4.78c0,.64-.52,1.16-1.16,1.16h-7.32v-3.24c-.49-.48-.98-.97-1.46-1.46H.01l.02,7.33c0,.73.3,1.39.78,1.86.48.48.97.97,1.45,1.45.48.48,1.14.77,1.87.77h15.17c1.46,0,2.64-1.18,2.64-2.64V1.46s-.01,0,0,0ZM22.82,17.91c.49.48.97.96,1.45,1.45h17.79c1.46,0,2.64-1.18,2.64-2.64V1.46c-.49-.48-.98-.97-1.46-1.46h-5.27v11.5c0,.53-.36.95-.84,1.09v-5.87c-.49-.48-.98-.97-1.46-1.46h-5.27v6.24c0,.54-.37.97-.87,1.1V1.48c-.49-.48-.98-.97-1.46-1.46h-5.27v17.89s0,0,0,0Z" fill="#fcca82"/><path d="M40.6,17.91h-17.79V.02h5.27v12.64h1.17c.64,0,1.16-.52,1.16-1.16v-6.24h5.27v7.39h1.14c.64,0,1.16-.52,1.16-1.16V0h5.27v15.27c0,1.46-1.18,2.64-2.64,2.64ZM12.54,5.27h2.68v6.24c0,.64-.52,1.16-1.16,1.16h-7.62c-.64,0-1.16-.52-1.16-1.16v-3.54H.01l.02,7.33c0,1.45,1.18,2.63,2.64,2.63h15.17c1.46,0,2.64-1.18,2.64-2.64V0h-7.94v5.27ZM43.24,28.47v-2.68h0v-2.11c0-1.74-1.41-3.15-3.15-3.15h-14.66c-1.46,0-2.64,1.18-2.64,2.64v12.65c0,1.46,1.18,2.64,2.64,2.64h14.66c1.74,0,3.15-1.41,3.15-3.15v-2.12s0,0,0,0v-2.68h-5.27v1.52c0,.64-.52,1.16-1.16,1.16h-7.59c-.64,0-1.16-.52-1.16-1.16v-5.08c0-.64.52-1.16,1.16-1.16h7.59c.64,0,1.16.52,1.16,1.16v1.51h5.27ZM15.18,30.53v2.68H5.27v-7.69h2.68v-5.27H0v18.22h20.48v-7.94h-5.3Z" fill="#bd3528"/></g></svg>