<?xml version="1.0" encoding="UTF-8"?><svg id="b" xmlns="http://www.w3.org/2000/svg" width="72" height="72" viewBox="0 0 72 72"><g id="c"><rect width="72" height="72" fill="#fcca82"/><path d="M57.89,32.06v-15.27h-5.27v11.5c0,.64-.52,1.16-1.16,1.16h-1.14v-7.39h-5.27v6.24c0,.64-.52,1.16-1.16,1.16h-1.17v-12.64h-5.27v17.89s17.78,0,17.78,0c1.46,0,2.64-1.18,2.64-2.64Z" fill="#bd3528"/><path d="M27.19,22.06h2.68v6.24c0,.64-.52,1.16-1.16,1.16h-7.62c-.64,0-1.16-.52-1.16-1.16v-3.54h-5.27l.02,7.33c0,1.45,1.18,2.63,2.64,2.63h15.17c1.46,0,2.64-1.18,2.64-2.64v-15.29h-7.94v5.27Z" fill="#bd3528"/><path d="M57.89,45.27v-2.68h0v-2.11c0-1.74-1.41-3.15-3.15-3.15h-14.66c-1.46,0-2.64,1.18-2.64,2.64v12.65c0,1.46,1.18,2.64,2.64,2.64h14.66c1.74,0,3.15-1.41,3.15-3.15v-2.12s0,0,0,0v-2.68h-5.27v1.52c0,.64-.52,1.16-1.16,1.16h-7.59c-.64,0-1.16-.52-1.16-1.16v-5.08c0-.64.52-1.16,1.16-1.16h7.59c.64,0,1.16.52,1.16,1.16v1.51h5.27Z" fill="#bd3528"/><polygon points="29.82 47.32 29.82 50 19.91 50 19.91 42.3 22.59 42.3 22.59 37.04 14.65 37.04 14.65 55.26 35.13 55.26 35.13 47.32 29.82 47.32" fill="#bd3528"/></g></svg>