<?xml version="1.0" encoding="UTF-8"?><svg id="b" xmlns="http://www.w3.org/2000/svg" width="49.07" height="44.3" viewBox="0 0 49.07 44.3"><g id="c"><path d="M0,0v44.3h49.07V0H0ZM25.74,2.94h5.27v12.64h1.17c.64,0,1.16-.52,1.16-1.16v-6.24h5.27v7.39h1.14c.64,0,1.16-.52,1.16-1.16V2.92h5.27v15.27c0,1.46-1.18,2.64-2.64,2.64h-17.79V2.94ZM23.4,41.39H2.92v-18.22h7.94v5.27h-2.68v7.69h9.91v-2.68h5.3v7.94ZM23.4,18.21c0,1.46-1.18,2.64-2.64,2.64H5.59c-1.45,0-2.63-1.18-2.64-2.63l-.02-7.33h5.27v3.54c0,.64.52,1.16,1.16,1.16h7.62c.64,0,1.16-.52,1.16-1.16v-6.24h-2.68V2.92h7.94v15.29ZM46.16,31.39h-5.27v-1.51c0-.64-.52-1.16-1.16-1.16h-7.59c-.64,0-1.16.52-1.16,1.16v5.08c0,.64.52,1.16,1.16,1.16h7.59c.64,0,1.16-.52,1.16-1.16v-1.52h5.27v2.68h0v2.12c0,1.74-1.41,3.15-3.14,3.15h-14.66c-1.46,0-2.64-1.18-2.64-2.64v-12.65c0-1.46,1.18-2.64,2.64-2.64h14.66c1.74,0,3.15,1.41,3.15,3.15v2.11h0v2.68Z" fill="#fcca82"/></g></svg>